<?xml version="1.0" encoding="utf-8"?>
<!-- Generator: Adobe Illustrator 14.0.0, SVG Export Plug-In  -->
<!DOCTYPE svg PUBLIC "-//W3C//DTD SVG 1.1//EN" "http://www.w3.org/Graphics/SVG/1.1/DTD/svg11.dtd" [
	<!ENTITY ns_flows "http://ns.adobe.com/Flows/1.0/">
]>
<svg version="1.1"
	 xmlns="http://www.w3.org/2000/svg" xmlns:xlink="http://www.w3.org/1999/xlink" xmlns:a="http://ns.adobe.com/AdobeSVGViewerExtensions/3.0/"
	 x="0px" y="0px" width="16px" height="16px" viewBox="-0.1 -0.1 16 16" enable-background="new -0.1 -0.1 16 16"
	 xml:space="preserve">
<defs>
</defs>
<path d="M7.9,0.632c4.008,0,7.269,3.261,7.269,7.268c0,4.008-3.261,7.269-7.269,7.269c-4.007,0-7.268-3.261-7.268-7.269
	C0.632,3.893,3.893,0.632,7.9,0.632 M7.9,0C3.537,0,0,3.537,0,7.9c0,4.363,3.537,7.9,7.9,7.9c4.363,0,7.9-3.537,7.9-7.9
	C15.8,3.537,12.263,0,7.9,0L7.9,0z"/>
<path d="M8.566,13.599c-0.526-0.051-1.018-0.183-1.452-0.38l-0.115,0.244c-1.09-0.624-1.27-1.029-1.27-1.029l-0.036,0.034
	c-0.21-0.22-0.373-0.487-0.473-0.738c0,0-0.229,0.032-0.639-0.099l0.393-0.049c-0.089-0.086-0.385-0.126-0.385-0.126
	c0.269-0.253,0.566-0.474,0.566-0.474c0.044-0.086,0.102-0.159,0.169-0.227c0.004-1.031,0.132-1.202,0.252-1.484
	c0.117-0.273,0.125-0.345-0.194-0.575c-0.476-0.34-0.868-0.793-1.085-1.345C4.145,7.381,3.956,7.366,3.793,7.25
	C3.765,7.283,3.752,7.318,3.76,7.358C3.607,7.095,3.563,6.795,3.622,6.625c0.063-0.179,0.3-0.376,0.479-0.393
	c0.014-0.595,0.208-1.146,0.53-1.598C3.177,2.632,5.1,1.448,5.734,1.264c0.349-0.101,0.665,0.093,0.665,0.093
	C6.369,1.397,6.242,1.438,6.206,1.46c0,0,1.111,0.101,1.147,0.385c0,0-0.355,0.542-1.168,0.626c0,0,0.063,0.114-0.376,0.127
	c-0.318,0.01-0.399-0.017-0.624-0.03C4.936,2.553,3.65,2.635,4.782,4.44C5.31,3.817,6.098,3.422,6.979,3.422
	c0.959,0,1.809,0.468,2.331,1.189c0.483,0.563,0.891,0.261,0.891,0.261s-0.071,0.344-0.445,0.339c0,0,0.366,0.479,0.479,0.479
	c0,0-0.331-0.004-0.561-0.141C9.738,5.79,9.759,5.957,9.765,6.11C9.759,6.524,9.614,7.127,9.391,8.241
	C9.373,8.338,9.627,8.574,9.627,8.574c-0.16,0.125-0.672-0.179-0.672-0.179s0.498,0.831,1.614,0.707
	c1.513-0.17,0.666-1.093,0.666-1.093s0.644,0.037,0.642,0.92c-0.003,0.76-0.427,0.775-0.427,0.775
	c0.521-0.08,0.698-0.396,0.698-0.396s0.154,0.576-0.177,0.885c0.569-0.284,0.837,0,0.837,0s-0.624,0.084-0.624,0.68l-0.021,0.394
	c0.074,1.174-1.101,2.196-2.729,2.339c-0.018,0.104-0.062,0.215-0.13,0.28c0,0,0.048,0.146,0.048,0.266
	c0,0.118-0.109,0.497-0.109,0.497S9.092,14.811,9,14.811c-0.092,0-0.972,0.041-0.972,0.041l-1.031,0.035c0,0,0.334-0.206,0.54-0.206
	s0.414,0.021,0.678,0.021c0.265,0,0.36-0.029,0.487-0.124c0.125-0.096,0.162-0.125,0.162-0.125s0.103-0.17,0.098-0.261
	c-0.005-0.092-0.082-0.279-0.082-0.279C8.776,13.881,8.676,13.8,8.566,13.599z"/>
</svg>
