<?xml version="1.0" encoding="utf-8"?>
<!-- Generator: Adobe Illustrator 14.0.0, SVG Export Plug-In  -->
<!DOCTYPE svg PUBLIC "-//W3C//DTD SVG 1.1//EN" "http://www.w3.org/Graphics/SVG/1.1/DTD/svg11.dtd" [
	<!ENTITY ns_flows "http://ns.adobe.com/Flows/1.0/">
]>
<svg version="1.1"
	 xmlns="http://www.w3.org/2000/svg" xmlns:xlink="http://www.w3.org/1999/xlink" xmlns:a="http://ns.adobe.com/AdobeSVGViewerExtensions/3.0/"
	 x="0px" y="0px" width="1000px" height="1000px" viewBox="0.262 -0.262 1000 1000" enable-background="new 0.262 -0.262 1000 1000"
	 xml:space="preserve">
<defs>
</defs>
<g>
	<path fill="#189EFC" d="M500,40c62.117,0,122.355,12.157,179.04,36.133c54.772,23.167,103.971,56.339,146.229,98.598
		c42.258,42.258,75.432,91.457,98.598,146.229C947.843,377.645,960,437.883,960,500s-12.157,122.355-36.133,179.04
		c-23.166,54.772-56.34,103.971-98.598,146.229c-42.259,42.258-91.457,75.432-146.229,98.598C622.355,947.843,562.117,960,500,960
		s-122.355-12.157-179.041-36.133c-54.771-23.166-103.97-56.34-146.229-98.598c-42.259-42.259-75.432-91.457-98.598-146.229
		C52.157,622.355,40,562.117,40,500s12.157-122.355,36.133-179.041c23.167-54.771,56.339-103.97,98.598-146.229
		c42.258-42.259,91.457-75.432,146.229-98.598C377.645,52.157,437.883,40,500,40 M500,0C223.857,0,0,223.857,0,500
		s223.857,500,500,500s500-223.857,500-500S776.143,0,500,0L500,0z"/>
</g>
<path fill="#189EFC" d="M541.353,853.516c-32.642-3.115-63.154-11.323-90.059-23.579l-7.183,15.146
	c-67.593-38.672-78.755-63.867-78.755-63.867l-2.222,2.134c-13.018-13.623-23.105-30.176-29.36-45.767
	c0,0-14.219,1.963-39.585-6.133l24.336-2.988c-5.527-5.342-23.867-7.91-23.867-7.91c16.641-15.625,35.078-29.316,35.078-29.316
	c2.695-5.396,6.343-9.932,10.518-14.077c0.264-63.911,8.154-74.57,15.635-92.07c7.246-16.968,7.793-21.421-12.051-35.654
	c-29.473-21.133-53.848-49.219-67.266-83.442c-9.497,1.841-21.211,0.898-31.27-6.25c-1.743,1.987-2.549,4.155-2.046,6.646
	c-9.531-16.274-12.261-34.893-8.579-45.439c3.867-11.089,18.613-23.315,29.688-24.355c0.85-36.895,12.905-71.021,32.881-99.121
	c-90.181-124.194,29.116-197.69,68.379-209.063c21.636-6.26,41.279,5.752,41.279,5.752c-1.855,2.529-9.707,5.015-11.963,6.406
	c0,0,68.892,6.265,71.172,23.916c0,0-22.061,33.564-72.451,38.848c0,0,3.857,7.012-23.394,7.9
	c-19.731,0.645-24.771-1.045-38.638-1.899c-15.483-0.957-95.205,4.146-25.02,116.089c32.754-38.643,81.65-63.169,136.274-63.169
	c59.468,0,112.148,29.067,144.595,73.77c29.932,34.907,55.181,16.216,55.181,16.216s-4.355,21.299-27.583,21.03
	c0,0,22.778,29.692,29.668,29.692c0,0-20.562-0.249-34.766-8.711c4.004,14.849,5.317,25.186,5.732,34.766
	c-0.381,25.664-9.453,63.081-23.164,132.139c-1.191,6.001,14.624,20.576,14.624,20.576c-9.966,7.813-41.772-11.025-41.772-11.025
	s30.991,51.543,100.195,43.774c93.867-10.547,41.299-67.759,41.299-67.759s39.985,2.29,39.795,57.075
	c-0.151,47.114-26.47,48.047-26.47,48.047c32.354-4.907,43.335-24.512,43.335-24.512s9.614,35.776-10.981,54.902
	c35.298-17.646,51.958,0,51.958,0s-38.745,5.181-38.745,42.158l-1.333,24.404c4.561,72.798-68.208,136.221-169.268,145.068
	c-1.074,6.509-3.843,13.369-8.096,17.339c0,0,3.042,9.141,3.042,16.494s-6.797,30.884-6.797,30.884s-9.438,10.103-15.117,10.103
	s-60.283,2.544-60.283,2.544l-63.94,2.178c0,0,20.713-12.798,33.457-12.798s25.674,1.279,42.095,1.279s22.305-1.836,30.151-7.715
	c7.837-5.889,10.107-7.725,10.107-7.725s6.377-10.537,6.06-16.177c-0.308-5.635-5.171-17.29-5.171-17.29
	C554.375,870.947,548.149,865.967,541.353,853.516z"/>
</svg>
